<svg width="64" height="65" viewBox="0 0 64 65" fill="none" xmlns="http://www.w3.org/2000/svg">
<g filter="url(#filter0_d)">
<path d="M4.70328 56V0.847998H4.77528L31.6313 38.936L59.1353 0.847998H59.2793V56H48.8393V30.728L31.5593 55.28H31.4153L14.7833 32.312V56H4.70328Z" fill="white"/>
<path d="M4.70328 56H4.20328V56.5H4.70328V56ZM4.70328 0.847998V0.347998H4.20328V0.847998H4.70328ZM4.77528 0.847998L5.18392 0.559868L5.03452 0.347998H4.77528V0.847998ZM31.6313 38.936L31.2226 39.2241L31.6264 39.7968L32.0366 39.2287L31.6313 38.936ZM59.1353 0.847998V0.347998H58.8796L58.7299 0.55528L59.1353 0.847998ZM59.2793 0.847998H59.7793V0.347998H59.2793V0.847998ZM59.2793 56V56.5H59.7793V56H59.2793ZM48.8393 56H48.3393V56.5H48.8393V56ZM48.8393 30.728H49.3393V29.1489L48.4304 30.4402L48.8393 30.728ZM31.5593 55.28V55.78H31.8188L31.9682 55.5678L31.5593 55.28ZM31.4153 55.28L31.0103 55.5733L31.16 55.78H31.4153V55.28ZM14.7833 32.312L15.1883 32.0187L14.2833 30.769V32.312H14.7833ZM14.7833 56V56.5H15.2833V56H14.7833ZM5.20328 56V0.847998H4.20328V56H5.20328ZM4.70328 1.348H4.77528V0.347998H4.70328V1.348ZM4.36665 1.13613L31.2226 39.2241L32.0399 38.6479L5.18392 0.559868L4.36665 1.13613ZM32.0366 39.2287L59.5406 1.14071L58.7299 0.55528L31.2259 38.6433L32.0366 39.2287ZM59.1353 1.348H59.2793V0.347998H59.1353V1.348ZM58.7793 0.847998V56H59.7793V0.847998H58.7793ZM59.2793 55.5H48.8393V56.5H59.2793V55.5ZM49.3393 56V30.728H48.3393V56H49.3393ZM48.4304 30.4402L31.1504 54.9922L31.9682 55.5678L49.2482 31.0158L48.4304 30.4402ZM31.5593 54.78H31.4153V55.78H31.5593V54.78ZM31.8203 54.9867L15.1883 32.0187L14.3783 32.6053L31.0103 55.5733L31.8203 54.9867ZM14.2833 32.312V56H15.2833V32.312H14.2833ZM14.7833 55.5H4.70328V56.5H14.7833V55.5Z" fill="#333333" fill-opacity="0.7"/>
</g>
<defs>
<filter id="filter0_d" x="0.203281" y="0.348" width="63.576" height="64.152" filterUnits="userSpaceOnUse" color-interpolation-filters="sRGB">
<feFlood flood-opacity="0" result="BackgroundImageFix"/>
<feColorMatrix in="SourceAlpha" type="matrix" values="0 0 0 0 0 0 0 0 0 0 0 0 0 0 0 0 0 0 127 0"/>
<feOffset dy="4"/>
<feGaussianBlur stdDeviation="2"/>
<feColorMatrix type="matrix" values="0 0 0 0 0 0 0 0 0 0 0 0 0 0 0 0 0 0 0.25 0"/>
<feBlend mode="normal" in2="BackgroundImageFix" result="effect1_dropShadow"/>
<feBlend mode="normal" in="SourceGraphic" in2="effect1_dropShadow" result="shape"/>
</filter>
</defs>
</svg>
